<?xml version="1.0" encoding="UTF-8" standalone="no"?>
<!DOCTYPE svg PUBLIC "-//W3C//DTD SVG 1.1//EN"
 "http://www.w3.org/Graphics/SVG/1.1/DTD/svg11.dtd">
<!-- Generated by graphviz version 12.2.1 (20241206.2353)
 -->
<!-- Pages: 1 -->
<svg width="683pt" height="206pt"
 viewBox="0.00 0.00 682.87 206.00" xmlns="http://www.w3.org/2000/svg" xmlns:xlink="http://www.w3.org/1999/xlink">
<g id="graph0" class="graph" transform="scale(1 1) rotate(0) translate(4 202)">
<polygon fill="white" stroke="none" points="-4,4 -4,-202 678.87,-202 678.87,4 -4,4"/>
<!-- gen_batch_query_plan -->
<g id="node1" class="node">
<title>gen_batch_query_plan</title>
<path fill="none" stroke="black" d="M127,-144C127,-144 12,-144 12,-144 6,-144 0,-138 0,-132 0,-132 0,-120 0,-120 0,-114 6,-108 12,-108 12,-108 127,-108 127,-108 133,-108 139,-114 139,-120 139,-120 139,-132 139,-132 139,-138 133,-144 127,-144"/>
<text text-anchor="middle" x="69.5" y="-120.95" font-family="Times New Roman,serif" font-size="14.00">gen_batch_query_plan</text>
</g>
<!-- plan -->
<g id="node2" class="node">
<title>plan</title>
<path fill="none" stroke="black" d="M272.31,-198C272.31,-198 242.31,-198 242.31,-198 236.31,-198 230.31,-192 230.31,-186 230.31,-186 230.31,-174 230.31,-174 230.31,-168 236.31,-162 242.31,-162 242.31,-162 272.31,-162 272.31,-162 278.31,-162 284.31,-168 284.31,-174 284.31,-174 284.31,-186 284.31,-186 284.31,-192 278.31,-198 272.31,-198"/>
<text text-anchor="middle" x="257.31" y="-174.95" font-family="Times New Roman,serif" font-size="14.00">plan</text>
</g>
<!-- gen_batch_query_plan&#45;&gt;plan -->
<g id="edge1" class="edge">
<title>gen_batch_query_plan&#45;&gt;plan</title>
<path fill="none" stroke="black" d="M133.92,-144.43C162.24,-152.66 194.63,-162.08 218.98,-169.15"/>
<polygon fill="black" stroke="black" points="217.86,-172.47 228.44,-171.9 219.81,-165.75 217.86,-172.47"/>
</g>
<!-- gen_batch_plan -->
<g id="node3" class="node">
<title>gen_batch_plan</title>
<path fill="none" stroke="red" d="M296.06,-144C296.06,-144 218.56,-144 218.56,-144 212.56,-144 206.56,-138 206.56,-132 206.56,-132 206.56,-120 206.56,-120 206.56,-114 212.56,-108 218.56,-108 218.56,-108 296.06,-108 296.06,-108 302.06,-108 308.06,-114 308.06,-120 308.06,-120 308.06,-132 308.06,-132 308.06,-138 302.06,-144 296.06,-144"/>
<text text-anchor="middle" x="257.31" y="-120.95" font-family="Times New Roman,serif" font-size="14.00">gen_batch_plan</text>
</g>
<!-- gen_batch_query_plan&#45;&gt;gen_batch_plan -->
<g id="edge2" class="edge">
<title>gen_batch_query_plan&#45;&gt;gen_batch_plan</title>
<path fill="none" stroke="black" d="M139.42,-126C157.55,-126 176.99,-126 194.71,-126"/>
<polygon fill="black" stroke="black" points="194.56,-129.5 204.56,-126 194.56,-122.5 194.56,-129.5"/>
</g>
<!-- query_mode -->
<g id="node4" class="node">
<title>query_mode</title>
<path fill="none" stroke="black" d="M245.59,-87.41C245.59,-87.41 187.72,-74.59 187.72,-74.59 181.86,-73.3 181.86,-70.7 187.72,-69.41 187.72,-69.41 245.59,-56.59 245.59,-56.59 251.45,-55.3 263.17,-55.3 269.02,-56.59 269.02,-56.59 326.9,-69.41 326.9,-69.41 332.76,-70.7 332.76,-73.3 326.9,-74.59 326.9,-74.59 269.02,-87.41 269.02,-87.41 263.17,-88.7 251.45,-88.7 245.59,-87.41"/>
<text text-anchor="middle" x="257.31" y="-66.95" font-family="Times New Roman,serif" font-size="14.00">query_mode</text>
</g>
<!-- gen_batch_query_plan&#45;&gt;query_mode -->
<g id="edge3" class="edge">
<title>gen_batch_query_plan&#45;&gt;query_mode</title>
<path fill="none" stroke="black" d="M133.92,-107.57C158.86,-100.32 186.96,-92.15 209.93,-85.48"/>
<polygon fill="black" stroke="black" points="210.69,-88.9 219.31,-82.75 208.73,-82.18 210.69,-88.9"/>
</g>
<!-- unreachable!() -->
<g id="node5" class="node">
<title>unreachable!()</title>
<path fill="none" stroke="black" d="M627.24,-144C627.24,-144 556.49,-144 556.49,-144 550.49,-144 544.49,-138 544.49,-132 544.49,-132 544.49,-120 544.49,-120 544.49,-114 550.49,-108 556.49,-108 556.49,-108 627.24,-108 627.24,-108 633.24,-108 639.24,-114 639.24,-120 639.24,-120 639.24,-132 639.24,-132 639.24,-138 633.24,-144 627.24,-144"/>
<text text-anchor="middle" x="591.87" y="-120.95" font-family="Times New Roman,serif" font-size="14.00">unreachable!()</text>
</g>
<!-- query_mode&#45;&gt;unreachable!() -->
<g id="edge4" class="edge">
<title>query_mode&#45;&gt;unreachable!()</title>
<path fill="none" stroke="black" d="M298.36,-81.22C316.15,-85.15 337.37,-89.59 356.62,-93 416.39,-103.58 485.23,-112.95 532.74,-118.97"/>
<polygon fill="black" stroke="black" points="532.18,-122.43 542.54,-120.2 533.06,-115.48 532.18,-122.43"/>
<text text-anchor="middle" x="423.74" y="-116.54" font-family="Times New Roman,serif" font-size="14.00">QueryMode::Auto</text>
</g>
<!-- gen_batch_local_plan -->
<g id="node6" class="node">
<title>gen_batch_local_plan</title>
<path fill="none" stroke="red" d="M647.12,-90C647.12,-90 536.62,-90 536.62,-90 530.62,-90 524.62,-84 524.62,-78 524.62,-78 524.62,-66 524.62,-66 524.62,-60 530.62,-54 536.62,-54 536.62,-54 647.12,-54 647.12,-54 653.12,-54 659.12,-60 659.12,-66 659.12,-66 659.12,-78 659.12,-78 659.12,-84 653.12,-90 647.12,-90"/>
<text text-anchor="middle" x="591.87" y="-66.95" font-family="Times New Roman,serif" font-size="14.00">gen_batch_local_plan</text>
</g>
<!-- query_mode&#45;&gt;gen_batch_local_plan -->
<g id="edge5" class="edge">
<title>query_mode&#45;&gt;gen_batch_local_plan</title>
<path fill="none" stroke="black" d="M340.51,-72C393.18,-72 461.11,-72 512.92,-72"/>
<polygon fill="black" stroke="black" points="512.87,-75.5 522.87,-72 512.87,-68.5 512.87,-75.5"/>
<text text-anchor="middle" x="423.74" y="-75.2" font-family="Times New Roman,serif" font-size="14.00">QueryMode::Local</text>
</g>
<!-- gen_batch_distributed_plan -->
<g id="node7" class="node">
<title>gen_batch_distributed_plan</title>
<path fill="none" stroke="red" d="M662.87,-36C662.87,-36 520.87,-36 520.87,-36 514.87,-36 508.87,-30 508.87,-24 508.87,-24 508.87,-12 508.87,-12 508.87,-6 514.87,0 520.87,0 520.87,0 662.87,0 662.87,0 668.87,0 674.87,-6 674.87,-12 674.87,-12 674.87,-24 674.87,-24 674.87,-30 668.87,-36 662.87,-36"/>
<text text-anchor="middle" x="591.87" y="-12.95" font-family="Times New Roman,serif" font-size="14.00">gen_batch_distributed_plan</text>
</g>
<!-- query_mode&#45;&gt;gen_batch_distributed_plan -->
<g id="edge6" class="edge">
<title>query_mode&#45;&gt;gen_batch_distributed_plan</title>
<path fill="none" stroke="black" d="M299.33,-62.84C316.92,-59.07 337.73,-54.82 356.62,-51.5 402.77,-43.4 454.29,-35.86 497.24,-30"/>
<polygon fill="black" stroke="black" points="497.6,-33.49 507.04,-28.67 496.66,-26.55 497.6,-33.49"/>
<text text-anchor="middle" x="423.74" y="-54.7" font-family="Times New Roman,serif" font-size="14.00">QueryMode::Distributed</text>
</g>
</g>
</svg>
