<?xml version="1.0" encoding="UTF-8" standalone="no"?>
<!DOCTYPE svg PUBLIC "-//W3C//DTD SVG 1.1//EN"
 "http://www.w3.org/Graphics/SVG/1.1/DTD/svg11.dtd">
<!-- Generated by graphviz version 2.43.0 (0)
 -->
<!-- Title: %3 Pages: 1 -->
<svg width="2365pt" height="394pt"
 viewBox="0.00 0.00 2364.85 393.81" xmlns="http://www.w3.org/2000/svg" xmlns:xlink="http://www.w3.org/1999/xlink">
<g id="graph0" class="graph" transform="scale(1 1) rotate(0) translate(4 389.81)">
<title>%3</title>
<polygon fill="white" stroke="transparent" points="-4,4 -4,-389.81 2360.85,-389.81 2360.85,4 -4,4"/>
<!-- handle_execute -->
<g id="node1" class="node">
<title>handle_execute</title>
<path fill="none" stroke="black" d="M115,-211.81C115,-211.81 12,-211.81 12,-211.81 6,-211.81 0,-205.81 0,-199.81 0,-199.81 0,-187.81 0,-187.81 0,-181.81 6,-175.81 12,-175.81 12,-175.81 115,-175.81 115,-175.81 121,-175.81 127,-181.81 127,-187.81 127,-187.81 127,-199.81 127,-199.81 127,-205.81 121,-211.81 115,-211.81"/>
<text text-anchor="middle" x="63.5" y="-190.11" font-family="Times,serif" font-size="14.00">handle_execute</text>
</g>
<!-- gen_batch_query_plan -->
<g id="node2" class="node">
<title>gen_batch_query_plan</title>
<path fill="none" stroke="black" d="M327,-211.81C327,-211.81 176,-211.81 176,-211.81 170,-211.81 164,-205.81 164,-199.81 164,-199.81 164,-187.81 164,-187.81 164,-181.81 170,-175.81 176,-175.81 176,-175.81 327,-175.81 327,-175.81 333,-175.81 339,-181.81 339,-187.81 339,-187.81 339,-199.81 339,-199.81 339,-205.81 333,-211.81 327,-211.81"/>
<text text-anchor="middle" x="251.5" y="-190.11" font-family="Times,serif" font-size="14.00">gen_batch_query_plan</text>
</g>
<!-- handle_execute&#45;&gt;gen_batch_query_plan -->
<g id="edge1" class="edge">
<title>handle_execute&#45;&gt;gen_batch_query_plan</title>
<path fill="none" stroke="black" d="M127.21,-193.81C135.79,-193.81 144.76,-193.81 153.78,-193.81"/>
<polygon fill="black" stroke="black" points="153.96,-197.31 163.96,-193.81 153.96,-190.31 153.96,-197.31"/>
</g>
<!-- planner.plan -->
<g id="node3" class="node">
<title>planner.plan</title>
<path fill="none" stroke="black" d="M469,-211.81C469,-211.81 388,-211.81 388,-211.81 382,-211.81 376,-205.81 376,-199.81 376,-199.81 376,-187.81 376,-187.81 376,-181.81 382,-175.81 388,-175.81 388,-175.81 469,-175.81 469,-175.81 475,-175.81 481,-181.81 481,-187.81 481,-187.81 481,-199.81 481,-199.81 481,-205.81 475,-211.81 469,-211.81"/>
<text text-anchor="middle" x="428.5" y="-190.11" font-family="Times,serif" font-size="14.00">planner.plan</text>
</g>
<!-- gen_batch_query_plan&#45;&gt;planner.plan -->
<g id="edge2" class="edge">
<title>gen_batch_query_plan&#45;&gt;planner.plan</title>
<path fill="none" stroke="black" d="M339.23,-193.81C348.15,-193.81 357.08,-193.81 365.66,-193.81"/>
<polygon fill="black" stroke="black" points="365.91,-197.31 375.91,-193.81 365.91,-190.31 365.91,-197.31"/>
</g>
<!-- BoundStatement -->
<g id="node4" class="node">
<title>BoundStatement</title>
<path fill="none" stroke="black" d="M632.05,-210.11C632.05,-210.11 529.95,-195.51 529.95,-195.51 524.01,-194.66 524.01,-192.96 529.95,-192.11 529.95,-192.11 632.05,-177.51 632.05,-177.51 637.98,-176.66 649.86,-176.66 655.8,-177.51 655.8,-177.51 757.89,-192.11 757.89,-192.11 763.83,-192.96 763.83,-194.66 757.89,-195.51 757.89,-195.51 655.8,-210.11 655.8,-210.11 649.86,-210.96 637.98,-210.96 632.05,-210.11"/>
<text text-anchor="middle" x="643.92" y="-190.11" font-family="Times,serif" font-size="14.00">BoundStatement</text>
</g>
<!-- planner.plan&#45;&gt;BoundStatement -->
<g id="edge3" class="edge">
<title>planner.plan&#45;&gt;BoundStatement</title>
<path fill="none" stroke="black" d="M481.16,-193.81C489.5,-193.81 498.45,-193.81 507.71,-193.81"/>
<polygon fill="black" stroke="black" points="507.87,-197.31 517.87,-193.81 507.87,-190.31 507.87,-197.31"/>
</g>
<!-- plan_query -->
<g id="node5" class="node">
<title>plan_query</title>
<path fill="none" stroke="black" d="M1300.35,-293.81C1300.35,-293.81 1229.35,-293.81 1229.35,-293.81 1223.35,-293.81 1217.35,-287.81 1217.35,-281.81 1217.35,-281.81 1217.35,-269.81 1217.35,-269.81 1217.35,-263.81 1223.35,-257.81 1229.35,-257.81 1229.35,-257.81 1300.35,-257.81 1300.35,-257.81 1306.35,-257.81 1312.35,-263.81 1312.35,-269.81 1312.35,-269.81 1312.35,-281.81 1312.35,-281.81 1312.35,-287.81 1306.35,-293.81 1300.35,-293.81"/>
<text text-anchor="middle" x="1264.85" y="-272.11" font-family="Times,serif" font-size="14.00">plan_query</text>
</g>
<!-- BoundStatement&#45;&gt;plan_query -->
<g id="edge4" class="edge">
<title>BoundStatement&#45;&gt;plan_query</title>
<path fill="none" stroke="black" d="M683.33,-206.27C711.86,-215.04 751.9,-226.34 787.85,-232.81 937.68,-259.8 1117.26,-270.19 1206.97,-273.91"/>
<polygon fill="black" stroke="black" points="1207.07,-277.42 1217.2,-274.32 1207.35,-270.43 1207.07,-277.42"/>
<text text-anchor="middle" x="1075.85" y="-274.61" font-family="Times,serif" font-size="14.00">BoundStatement::Query</text>
</g>
<!-- plan_insert -->
<g id="node12" class="node">
<title>plan_insert</title>
<path fill="none" stroke="black" d="M1111.85,-239.81C1111.85,-239.81 1039.85,-239.81 1039.85,-239.81 1033.85,-239.81 1027.85,-233.81 1027.85,-227.81 1027.85,-227.81 1027.85,-215.81 1027.85,-215.81 1027.85,-209.81 1033.85,-203.81 1039.85,-203.81 1039.85,-203.81 1111.85,-203.81 1111.85,-203.81 1117.85,-203.81 1123.85,-209.81 1123.85,-215.81 1123.85,-215.81 1123.85,-227.81 1123.85,-227.81 1123.85,-233.81 1117.85,-239.81 1111.85,-239.81"/>
<text text-anchor="middle" x="1075.85" y="-218.11" font-family="Times,serif" font-size="14.00">plan_insert</text>
</g>
<!-- BoundStatement&#45;&gt;plan_insert -->
<g id="edge12" class="edge">
<title>BoundStatement&#45;&gt;plan_insert</title>
<path fill="none" stroke="black" d="M730.89,-199.41C816.08,-204.96 944.16,-213.3 1017.61,-218.08"/>
<polygon fill="black" stroke="black" points="1017.4,-221.58 1027.6,-218.73 1017.85,-214.59 1017.4,-221.58"/>
<text text-anchor="middle" x="879.35" y="-217.61" font-family="Times,serif" font-size="14.00">BoundStatement::Insert</text>
</g>
<!-- plan_delete -->
<g id="node14" class="node">
<title>plan_delete</title>
<path fill="none" stroke="black" d="M1112.85,-105.81C1112.85,-105.81 1038.85,-105.81 1038.85,-105.81 1032.85,-105.81 1026.85,-99.81 1026.85,-93.81 1026.85,-93.81 1026.85,-81.81 1026.85,-81.81 1026.85,-75.81 1032.85,-69.81 1038.85,-69.81 1038.85,-69.81 1112.85,-69.81 1112.85,-69.81 1118.85,-69.81 1124.85,-75.81 1124.85,-81.81 1124.85,-81.81 1124.85,-93.81 1124.85,-93.81 1124.85,-99.81 1118.85,-105.81 1112.85,-105.81"/>
<text text-anchor="middle" x="1075.85" y="-84.11" font-family="Times,serif" font-size="14.00">plan_delete</text>
</g>
<!-- BoundStatement&#45;&gt;plan_delete -->
<g id="edge15" class="edge">
<title>BoundStatement&#45;&gt;plan_delete</title>
<path fill="none" stroke="black" d="M686.07,-181.75C714.55,-173.53 753.39,-162.59 787.85,-153.81 866.72,-133.72 958.48,-113.09 1016.6,-100.37"/>
<polygon fill="black" stroke="black" points="1017.67,-103.72 1026.7,-98.16 1016.18,-96.88 1017.67,-103.72"/>
<text text-anchor="middle" x="879.35" y="-157.61" font-family="Times,serif" font-size="14.00">BoundStatement::Delete</text>
</g>
<!-- plan_update -->
<g id="node19" class="node">
<title>plan_update</title>
<path fill="none" stroke="black" d="M1115.85,-183.81C1115.85,-183.81 1035.85,-183.81 1035.85,-183.81 1029.85,-183.81 1023.85,-177.81 1023.85,-171.81 1023.85,-171.81 1023.85,-159.81 1023.85,-159.81 1023.85,-153.81 1029.85,-147.81 1035.85,-147.81 1035.85,-147.81 1115.85,-147.81 1115.85,-147.81 1121.85,-147.81 1127.85,-153.81 1127.85,-159.81 1127.85,-159.81 1127.85,-171.81 1127.85,-171.81 1127.85,-177.81 1121.85,-183.81 1115.85,-183.81"/>
<text text-anchor="middle" x="1075.85" y="-162.11" font-family="Times,serif" font-size="14.00">plan_update</text>
</g>
<!-- BoundStatement&#45;&gt;plan_update -->
<g id="edge23" class="edge">
<title>BoundStatement&#45;&gt;plan_update</title>
<path fill="none" stroke="black" d="M728.43,-187.87C747.93,-186.51 768.61,-185.09 787.85,-183.81 865.74,-178.64 955.55,-173.07 1013.66,-169.52"/>
<polygon fill="black" stroke="black" points="1014.01,-173.01 1023.78,-168.9 1013.58,-166.02 1014.01,-173.01"/>
<text text-anchor="middle" x="879.35" y="-187.61" font-family="Times,serif" font-size="14.00">BoundStatement::Update</text>
</g>
<!-- plan_set_expr -->
<g id="node6" class="node">
<title>plan_set_expr</title>
<path fill="none" stroke="black" d="M1490.85,-291.81C1490.85,-291.81 1399.85,-291.81 1399.85,-291.81 1393.85,-291.81 1387.85,-285.81 1387.85,-279.81 1387.85,-279.81 1387.85,-267.81 1387.85,-267.81 1387.85,-261.81 1393.85,-255.81 1399.85,-255.81 1399.85,-255.81 1490.85,-255.81 1490.85,-255.81 1496.85,-255.81 1502.85,-261.81 1502.85,-267.81 1502.85,-267.81 1502.85,-279.81 1502.85,-279.81 1502.85,-285.81 1496.85,-291.81 1490.85,-291.81"/>
<text text-anchor="middle" x="1445.35" y="-270.11" font-family="Times,serif" font-size="14.00">plan_set_expr</text>
</g>
<!-- plan_query&#45;&gt;plan_set_expr -->
<g id="edge5" class="edge">
<title>plan_query&#45;&gt;plan_set_expr</title>
<path fill="none" stroke="black" d="M1312.75,-275.29C1332.54,-275.06 1355.96,-274.8 1377.51,-274.56"/>
<polygon fill="black" stroke="black" points="1377.63,-278.06 1387.59,-274.45 1377.55,-271.06 1377.63,-278.06"/>
</g>
<!-- BoundSetExpr -->
<g id="node7" class="node">
<title>BoundSetExpr</title>
<path fill="none" stroke="black" d="M1671.5,-329.9C1671.5,-329.9 1583.76,-315.72 1583.76,-315.72 1577.84,-314.77 1577.84,-312.85 1583.76,-311.9 1583.76,-311.9 1671.5,-297.72 1671.5,-297.72 1677.43,-296.77 1689.27,-296.77 1695.2,-297.72 1695.2,-297.72 1782.94,-311.9 1782.94,-311.9 1788.86,-312.85 1788.86,-314.77 1782.94,-315.72 1782.94,-315.72 1695.2,-329.9 1695.2,-329.9 1689.27,-330.85 1677.43,-330.85 1671.5,-329.9"/>
<text text-anchor="middle" x="1683.35" y="-310.11" font-family="Times,serif" font-size="14.00">BoundSetExpr</text>
</g>
<!-- plan_set_expr&#45;&gt;BoundSetExpr -->
<g id="edge6" class="edge">
<title>plan_set_expr&#45;&gt;BoundSetExpr</title>
<path fill="none" stroke="black" d="M1502.88,-283.39C1537.65,-289.29 1582.31,-296.86 1618.38,-302.97"/>
<polygon fill="black" stroke="black" points="1617.87,-306.43 1628.31,-304.65 1619.04,-299.53 1617.87,-306.43"/>
</g>
<!-- BoundSetExpr&#45;&gt;plan_query -->
<g id="edge9" class="edge">
<title>BoundSetExpr&#45;&gt;plan_query</title>
<path fill="none" stroke="black" d="M1577.78,-314.77C1516.11,-314.02 1436.72,-310.79 1366.85,-300.81 1352.25,-298.73 1336.68,-295.43 1322.26,-291.9"/>
<polygon fill="black" stroke="black" points="1323.03,-288.49 1312.48,-289.44 1321.32,-295.27 1323.03,-288.49"/>
<text text-anchor="middle" x="1445.35" y="-316.61" font-family="Times,serif" font-size="14.00">BoundSetExpr::Query</text>
</g>
<!-- plan_select -->
<g id="node8" class="node">
<title>plan_select</title>
<path fill="none" stroke="black" d="M2170.35,-385.81C2170.35,-385.81 2098.35,-385.81 2098.35,-385.81 2092.35,-385.81 2086.35,-379.81 2086.35,-373.81 2086.35,-373.81 2086.35,-361.81 2086.35,-361.81 2086.35,-355.81 2092.35,-349.81 2098.35,-349.81 2098.35,-349.81 2170.35,-349.81 2170.35,-349.81 2176.35,-349.81 2182.35,-355.81 2182.35,-361.81 2182.35,-361.81 2182.35,-373.81 2182.35,-373.81 2182.35,-379.81 2176.35,-385.81 2170.35,-385.81"/>
<text text-anchor="middle" x="2134.35" y="-364.11" font-family="Times,serif" font-size="14.00">plan_select</text>
</g>
<!-- BoundSetExpr&#45;&gt;plan_select -->
<g id="edge7" class="edge">
<title>BoundSetExpr&#45;&gt;plan_select</title>
<path fill="none" stroke="black" d="M1743.36,-322.15C1768.2,-325.58 1797.41,-329.52 1823.85,-332.81 1911.79,-343.77 2013.97,-355.04 2076.12,-361.73"/>
<polygon fill="black" stroke="black" points="2075.8,-365.22 2086.12,-362.81 2076.55,-358.26 2075.8,-365.22"/>
<text text-anchor="middle" x="1932.35" y="-360.61" font-family="Times,serif" font-size="14.00">BoundSetExpr::Select</text>
</g>
<!-- plan_values -->
<g id="node9" class="node">
<title>plan_values</title>
<path fill="none" stroke="black" d="M2172.35,-331.81C2172.35,-331.81 2096.35,-331.81 2096.35,-331.81 2090.35,-331.81 2084.35,-325.81 2084.35,-319.81 2084.35,-319.81 2084.35,-307.81 2084.35,-307.81 2084.35,-301.81 2090.35,-295.81 2096.35,-295.81 2096.35,-295.81 2172.35,-295.81 2172.35,-295.81 2178.35,-295.81 2184.35,-301.81 2184.35,-307.81 2184.35,-307.81 2184.35,-319.81 2184.35,-319.81 2184.35,-325.81 2178.35,-331.81 2172.35,-331.81"/>
<text text-anchor="middle" x="2134.35" y="-310.11" font-family="Times,serif" font-size="14.00">plan_values</text>
</g>
<!-- BoundSetExpr&#45;&gt;plan_values -->
<g id="edge8" class="edge">
<title>BoundSetExpr&#45;&gt;plan_values</title>
<path fill="none" stroke="black" d="M1794.76,-313.81C1882.99,-313.81 2003.24,-313.81 2074.15,-313.81"/>
<polygon fill="black" stroke="black" points="2074.24,-317.31 2084.24,-313.81 2074.24,-310.31 2074.24,-317.31"/>
<text text-anchor="middle" x="1932.35" y="-317.61" font-family="Times,serif" font-size="14.00">BoundSetExpr::Values</text>
</g>
<!-- plan_set_operation -->
<g id="node10" class="node">
<title>plan_set_operation</title>
<path fill="none" stroke="black" d="M2197.85,-277.81C2197.85,-277.81 2070.85,-277.81 2070.85,-277.81 2064.85,-277.81 2058.85,-271.81 2058.85,-265.81 2058.85,-265.81 2058.85,-253.81 2058.85,-253.81 2058.85,-247.81 2064.85,-241.81 2070.85,-241.81 2070.85,-241.81 2197.85,-241.81 2197.85,-241.81 2203.85,-241.81 2209.85,-247.81 2209.85,-253.81 2209.85,-253.81 2209.85,-265.81 2209.85,-265.81 2209.85,-271.81 2203.85,-277.81 2197.85,-277.81"/>
<text text-anchor="middle" x="2134.35" y="-256.11" font-family="Times,serif" font-size="14.00">plan_set_operation</text>
</g>
<!-- BoundSetExpr&#45;&gt;plan_set_operation -->
<g id="edge10" class="edge">
<title>BoundSetExpr&#45;&gt;plan_set_operation</title>
<path fill="none" stroke="black" d="M1743.36,-305.47C1768.2,-302.04 1797.41,-298.11 1823.85,-294.81 1899.71,-285.36 1986.18,-275.67 2048.4,-268.89"/>
<polygon fill="black" stroke="black" points="2049,-272.35 2058.56,-267.79 2048.24,-265.39 2049,-272.35"/>
<text text-anchor="middle" x="1932.35" y="-298.61" font-family="Times,serif" font-size="14.00">BoundSetExpr::SetOperations</text>
</g>
<!-- plan_relation -->
<g id="node11" class="node">
<title>plan_relation</title>
<path fill="none" stroke="black" d="M2344.85,-385.81C2344.85,-385.81 2258.85,-385.81 2258.85,-385.81 2252.85,-385.81 2246.85,-379.81 2246.85,-373.81 2246.85,-373.81 2246.85,-361.81 2246.85,-361.81 2246.85,-355.81 2252.85,-349.81 2258.85,-349.81 2258.85,-349.81 2344.85,-349.81 2344.85,-349.81 2350.85,-349.81 2356.85,-355.81 2356.85,-361.81 2356.85,-361.81 2356.85,-373.81 2356.85,-373.81 2356.85,-379.81 2350.85,-385.81 2344.85,-385.81"/>
<text text-anchor="middle" x="2301.85" y="-364.11" font-family="Times,serif" font-size="14.00">plan_relation</text>
</g>
<!-- plan_select&#45;&gt;plan_relation -->
<g id="edge11" class="edge">
<title>plan_select&#45;&gt;plan_relation</title>
<path fill="none" stroke="black" d="M2182.77,-367.81C2199.54,-367.81 2218.69,-367.81 2236.61,-367.81"/>
<polygon fill="black" stroke="black" points="2236.71,-371.31 2246.71,-367.81 2236.71,-364.31 2236.71,-371.31"/>
</g>
<!-- plan_insert&#45;&gt;plan_query -->
<g id="edge13" class="edge">
<title>plan_insert&#45;&gt;plan_query</title>
<path fill="none" stroke="black" d="M1124.04,-235.44C1149.37,-242.75 1180.76,-251.82 1207.38,-259.5"/>
<polygon fill="black" stroke="black" points="1206.75,-262.96 1217.32,-262.38 1208.69,-256.24 1206.75,-262.96"/>
</g>
<!-- LogicalProject::create -->
<g id="node13" class="node">
<title>LogicalProject::create</title>
<path fill="none" stroke="black" d="M1757.85,-159.81C1757.85,-159.81 1608.85,-159.81 1608.85,-159.81 1602.85,-159.81 1596.85,-153.81 1596.85,-147.81 1596.85,-147.81 1596.85,-135.81 1596.85,-135.81 1596.85,-129.81 1602.85,-123.81 1608.85,-123.81 1608.85,-123.81 1757.85,-123.81 1757.85,-123.81 1763.85,-123.81 1769.85,-129.81 1769.85,-135.81 1769.85,-135.81 1769.85,-147.81 1769.85,-147.81 1769.85,-153.81 1763.85,-159.81 1757.85,-159.81"/>
<text text-anchor="middle" x="1683.35" y="-138.11" font-family="Times,serif" font-size="14.00">LogicalProject::create</text>
</g>
<!-- plan_insert&#45;&gt;LogicalProject::create -->
<g id="edge14" class="edge">
<title>plan_insert&#45;&gt;LogicalProject::create</title>
<path fill="none" stroke="black" d="M1124.06,-218.88C1205.86,-213.4 1379.06,-200 1523.85,-176.81 1548.55,-172.85 1575.18,-167.43 1599.43,-162.04"/>
<polygon fill="black" stroke="black" points="1600.32,-165.43 1609.3,-159.82 1598.78,-158.6 1600.32,-165.43"/>
</g>
<!-- plan_delete&#45;&gt;LogicalProject::create -->
<g id="edge22" class="edge">
<title>plan_delete&#45;&gt;LogicalProject::create</title>
<path fill="none" stroke="black" d="M1124.87,-92.09C1224.51,-100.98 1455.35,-121.57 1586.6,-133.27"/>
<polygon fill="black" stroke="black" points="1586.38,-136.77 1596.65,-134.17 1587,-129.79 1586.38,-136.77"/>
</g>
<!-- plan_where -->
<g id="node15" class="node">
<title>plan_where</title>
<path fill="none" stroke="black" d="M1301.85,-159.81C1301.85,-159.81 1227.85,-159.81 1227.85,-159.81 1221.85,-159.81 1215.85,-153.81 1215.85,-147.81 1215.85,-147.81 1215.85,-135.81 1215.85,-135.81 1215.85,-129.81 1221.85,-123.81 1227.85,-123.81 1227.85,-123.81 1301.85,-123.81 1301.85,-123.81 1307.85,-123.81 1313.85,-129.81 1313.85,-135.81 1313.85,-135.81 1313.85,-147.81 1313.85,-147.81 1313.85,-153.81 1307.85,-159.81 1301.85,-159.81"/>
<text text-anchor="middle" x="1264.85" y="-138.11" font-family="Times,serif" font-size="14.00">plan_where</text>
</g>
<!-- plan_delete&#45;&gt;plan_where -->
<g id="edge16" class="edge">
<title>plan_delete&#45;&gt;plan_where</title>
<path fill="none" stroke="black" d="M1125.01,-101.72C1149.67,-108.84 1179.88,-117.56 1205.82,-125.05"/>
<polygon fill="black" stroke="black" points="1204.95,-128.45 1215.53,-127.86 1206.89,-121.72 1204.95,-128.45"/>
</g>
<!-- plan_base_table -->
<g id="node16" class="node">
<title>plan_base_table</title>
<path fill="none" stroke="black" d="M1317.85,-67.81C1317.85,-67.81 1211.85,-67.81 1211.85,-67.81 1205.85,-67.81 1199.85,-61.81 1199.85,-55.81 1199.85,-55.81 1199.85,-43.81 1199.85,-43.81 1199.85,-37.81 1205.85,-31.81 1211.85,-31.81 1211.85,-31.81 1317.85,-31.81 1317.85,-31.81 1323.85,-31.81 1329.85,-37.81 1329.85,-43.81 1329.85,-43.81 1329.85,-55.81 1329.85,-55.81 1329.85,-61.81 1323.85,-67.81 1317.85,-67.81"/>
<text text-anchor="middle" x="1264.85" y="-46.11" font-family="Times,serif" font-size="14.00">plan_base_table</text>
</g>
<!-- plan_delete&#45;&gt;plan_base_table -->
<g id="edge17" class="edge">
<title>plan_delete&#45;&gt;plan_base_table</title>
<path fill="none" stroke="black" d="M1125.01,-78.03C1144.71,-74.02 1167.97,-69.3 1189.75,-64.87"/>
<polygon fill="black" stroke="black" points="1190.53,-68.28 1199.64,-62.86 1189.14,-61.42 1190.53,-68.28"/>
</g>
<!-- LogicalProject::with_out_col_idx -->
<g id="node18" class="node">
<title>LogicalProject::with_out_col_idx</title>
<path fill="none" stroke="black" d="M1793.85,-42.81C1793.85,-42.81 1572.85,-42.81 1572.85,-42.81 1566.85,-42.81 1560.85,-36.81 1560.85,-30.81 1560.85,-30.81 1560.85,-18.81 1560.85,-18.81 1560.85,-12.81 1566.85,-6.81 1572.85,-6.81 1572.85,-6.81 1793.85,-6.81 1793.85,-6.81 1799.85,-6.81 1805.85,-12.81 1805.85,-18.81 1805.85,-18.81 1805.85,-30.81 1805.85,-30.81 1805.85,-36.81 1799.85,-42.81 1793.85,-42.81"/>
<text text-anchor="middle" x="1683.35" y="-21.11" font-family="Times,serif" font-size="14.00">LogicalProject::with_out_col_idx</text>
</g>
<!-- plan_delete&#45;&gt;LogicalProject::with_out_col_idx -->
<g id="edge21" class="edge">
<title>plan_delete&#45;&gt;LogicalProject::with_out_col_idx</title>
<path fill="none" stroke="black" d="M1102.21,-69.65C1126.09,-53.75 1163.51,-31.82 1199.85,-22.81 1315.89,5.96 1452.51,2.03 1550.7,-7.08"/>
<polygon fill="black" stroke="black" points="1550.39,-10.57 1560.68,-8.04 1551.06,-3.6 1550.39,-10.57"/>
</g>
<g id="node17" class="node">
<title></title>
<path fill="none" stroke="black" d="M1460.35,-67.81C1460.35,-67.81 1430.35,-67.81 1430.35,-67.81 1424.35,-67.81 1418.35,-61.81 1418.35,-55.81 1418.35,-55.81 1418.35,-43.81 1418.35,-43.81 1418.35,-37.81 1424.35,-31.81 1430.35,-31.81 1430.35,-31.81 1460.35,-31.81 1460.35,-31.81 1466.35,-31.81 1472.35,-37.81 1472.35,-43.81 1472.35,-43.81 1472.35,-55.81 1472.35,-55.81 1472.35,-61.81 1466.35,-67.81 1460.35,-67.81"/>
</g>
<!-- plan_base_table&#45;&gt; -->
<!-- &#45;&gt;LogicalProject::create -->
<g id="edge20" class="edge">
<title>&#45;&gt;LogicalProject::create</title>
<path fill="none" stroke="black" d="M1472.37,-57.77C1491.91,-63.91 1519.26,-72.84 1542.85,-81.81 1573.25,-93.36 1606.74,-107.71 1633.29,-119.48"/>
<polygon fill="black" stroke="black" points="1632.18,-122.82 1642.73,-123.69 1635.02,-116.43 1632.18,-122.82"/>
</g>
<!-- &#45;&gt;LogicalProject::with_out_col_idx -->
<g id="edge19" class="edge">
<title>&#45;&gt;LogicalProject::with_out_col_idx</title>
<path fill="none" stroke="black" d="M1472.51,-47.04C1492.18,-44.96 1520.78,-41.93 1550.56,-38.77"/>
<polygon fill="black" stroke="black" points="1551.12,-42.23 1560.7,-37.7 1550.38,-35.27 1551.12,-42.23"/>
</g>
<!-- plan_update&#45;&gt;LogicalProject::create -->
<g id="edge26" class="edge">
<title>plan_update&#45;&gt;LogicalProject::create</title>
<path fill="none" stroke="black" d="M1128.01,-167.34C1150.1,-167.93 1176.25,-168.52 1199.85,-168.81 1257.62,-169.52 1272.11,-171.02 1329.85,-168.81 1416.8,-165.49 1515.56,-157.56 1586.38,-151.15"/>
<polygon fill="black" stroke="black" points="1586.98,-154.61 1596.62,-150.22 1586.34,-147.64 1586.98,-154.61"/>
</g>
<!-- plan_update&#45;&gt;plan_where -->
<g id="edge24" class="edge">
<title>plan_update&#45;&gt;plan_where</title>
<path fill="none" stroke="black" d="M1127.95,-159.25C1151.99,-156.17 1180.79,-152.47 1205.67,-149.28"/>
<polygon fill="black" stroke="black" points="1206.23,-152.73 1215.71,-147.99 1205.34,-145.79 1206.23,-152.73"/>
</g>
<!-- plan_update&#45;&gt;plan_base_table -->
<g id="edge25" class="edge">
<title>plan_update&#45;&gt;plan_base_table</title>
<path fill="none" stroke="black" d="M1108.06,-147.67C1124.46,-138.05 1144.83,-125.94 1162.85,-114.81 1184.54,-101.41 1208.55,-85.98 1227.72,-73.52"/>
<polygon fill="black" stroke="black" points="1229.69,-76.41 1236.16,-68.02 1225.87,-70.55 1229.69,-76.41"/>
</g>
</g>
</svg>
