<?xml version="1.0" encoding="UTF-8" standalone="no"?>
<!DOCTYPE svg PUBLIC "-//W3C//DTD SVG 1.1//EN"
 "http://www.w3.org/Graphics/SVG/1.1/DTD/svg11.dtd">
<!-- Generated by graphviz version 12.2.1 (20241206.2353)
 -->
<!-- Pages: 1 -->
<svg width="2419pt" height="389pt"
 viewBox="0.00 0.00 2419.35 388.59" xmlns="http://www.w3.org/2000/svg" xmlns:xlink="http://www.w3.org/1999/xlink">
<g id="graph0" class="graph" transform="scale(1 1) rotate(0) translate(4 384.59)">
<polygon fill="white" stroke="none" points="-4,4 -4,-384.59 2415.35,-384.59 2415.35,4 -4,4"/>
<!-- handle_execute -->
<g id="node1" class="node">
<title>handle_execute</title>
<path fill="none" stroke="black" d="M88,-141.59C88,-141.59 12,-141.59 12,-141.59 6,-141.59 0,-135.59 0,-129.59 0,-129.59 0,-117.59 0,-117.59 0,-111.59 6,-105.59 12,-105.59 12,-105.59 88,-105.59 88,-105.59 94,-105.59 100,-111.59 100,-117.59 100,-117.59 100,-129.59 100,-129.59 100,-135.59 94,-141.59 88,-141.59"/>
<text text-anchor="middle" x="50" y="-118.54" font-family="Times New Roman,serif" font-size="14.00">handle_execute</text>
</g>
<!-- Statement -->
<g id="node2" class="node">
<title>Statement</title>
<path fill="none" stroke="black" d="M193.68,-138.53C193.68,-138.53 148.6,-126.65 148.6,-126.65 142.8,-125.12 142.8,-122.06 148.6,-120.53 148.6,-120.53 193.68,-108.65 193.68,-108.65 199.48,-107.12 211.08,-107.12 216.88,-108.65 216.88,-108.65 261.95,-120.53 261.95,-120.53 267.76,-122.06 267.76,-125.12 261.95,-126.65 261.95,-126.65 216.88,-138.53 216.88,-138.53 211.08,-140.06 199.48,-140.06 193.68,-138.53"/>
<text text-anchor="middle" x="205.28" y="-118.54" font-family="Times New Roman,serif" font-size="14.00">Statement</text>
</g>
<!-- handle_execute&#45;&gt;Statement -->
<g id="edge1" class="edge">
<title>handle_execute&#45;&gt;Statement</title>
<path fill="none" stroke="black" d="M100.34,-123.59C107.9,-123.59 115.86,-123.59 123.87,-123.59"/>
<polygon fill="black" stroke="black" points="123.69,-127.09 133.69,-123.59 123.69,-120.09 123.69,-127.09"/>
</g>
<!-- closure -->
<g id="node3" class="node">
<title>closure</title>
<path fill="none" stroke="black" d="M529.18,-175.59C529.18,-175.59 498.18,-175.59 498.18,-175.59 492.18,-175.59 486.18,-169.59 486.18,-163.59 486.18,-163.59 486.18,-151.59 486.18,-151.59 486.18,-145.59 492.18,-139.59 498.18,-139.59 498.18,-139.59 529.18,-139.59 529.18,-139.59 535.18,-139.59 541.18,-145.59 541.18,-151.59 541.18,-151.59 541.18,-163.59 541.18,-163.59 541.18,-169.59 535.18,-175.59 529.18,-175.59"/>
<text text-anchor="middle" x="513.68" y="-152.54" font-family="Times New Roman,serif" font-size="14.00">closure</text>
</g>
<!-- Statement&#45;&gt;closure -->
<g id="edge2" class="edge">
<title>Statement&#45;&gt;closure</title>
<path fill="none" stroke="black" d="M254.83,-128.98C315.8,-135.74 419.12,-147.21 474.66,-153.37"/>
<polygon fill="black" stroke="black" points="473.93,-156.81 484.25,-154.43 474.7,-149.85 473.93,-156.81"/>
<text text-anchor="middle" x="354.56" y="-166.29" font-family="Times New Roman,serif" font-size="14.00">Statement::Query,</text>
<text text-anchor="middle" x="354.56" y="-149.79" font-family="Times New Roman,serif" font-size="14.00">Insert, Delete, Update</text>
</g>
<!-- handle_create_mv_bound -->
<g id="node6" class="node">
<title>handle_create_mv_bound</title>
<path fill="none" stroke="black" d="M579.81,-121.59C579.81,-121.59 447.56,-121.59 447.56,-121.59 441.56,-121.59 435.56,-115.59 435.56,-109.59 435.56,-109.59 435.56,-97.59 435.56,-97.59 435.56,-91.59 441.56,-85.59 447.56,-85.59 447.56,-85.59 579.81,-85.59 579.81,-85.59 585.81,-85.59 591.81,-91.59 591.81,-97.59 591.81,-97.59 591.81,-109.59 591.81,-109.59 591.81,-115.59 585.81,-121.59 579.81,-121.59"/>
<text text-anchor="middle" x="513.68" y="-98.54" font-family="Times New Roman,serif" font-size="14.00">handle_create_mv_bound</text>
</g>
<!-- Statement&#45;&gt;handle_create_mv_bound -->
<g id="edge5" class="edge">
<title>Statement&#45;&gt;handle_create_mv_bound</title>
<path fill="none" stroke="black" d="M250.01,-116.87C263.32,-115.05 278.01,-113.26 291.56,-112.09 335.02,-108.33 383.44,-106.24 423.86,-105.07"/>
<polygon fill="black" stroke="black" points="423.89,-108.57 433.79,-104.79 423.7,-101.57 423.89,-108.57"/>
<text text-anchor="middle" x="354.56" y="-115.29" font-family="Times New Roman,serif" font-size="14.00">Statement::CreateView</text>
</g>
<!-- gen_batch_query_plan -->
<g id="node4" class="node">
<title>gen_batch_query_plan</title>
<path fill="none" stroke="black" d="M755.81,-209.59C755.81,-209.59 640.81,-209.59 640.81,-209.59 634.81,-209.59 628.81,-203.59 628.81,-197.59 628.81,-197.59 628.81,-185.59 628.81,-185.59 628.81,-179.59 634.81,-173.59 640.81,-173.59 640.81,-173.59 755.81,-173.59 755.81,-173.59 761.81,-173.59 767.81,-179.59 767.81,-185.59 767.81,-185.59 767.81,-197.59 767.81,-197.59 767.81,-203.59 761.81,-209.59 755.81,-209.59"/>
<text text-anchor="middle" x="698.31" y="-186.54" font-family="Times New Roman,serif" font-size="14.00">gen_batch_query_plan</text>
</g>
<!-- closure&#45;&gt;gen_batch_query_plan -->
<g id="edge3" class="edge">
<title>closure&#45;&gt;gen_batch_query_plan</title>
<path fill="none" stroke="black" d="M541.63,-162.61C561.69,-166.34 590.17,-171.64 617.31,-176.69"/>
<polygon fill="black" stroke="black" points="616.46,-180.1 626.93,-178.49 617.74,-173.22 616.46,-180.1"/>
</g>
<!-- execute -->
<g id="node5" class="node">
<title>execute</title>
<path fill="none" stroke="red" d="M714.93,-155.59C714.93,-155.59 681.68,-155.59 681.68,-155.59 675.68,-155.59 669.68,-149.59 669.68,-143.59 669.68,-143.59 669.68,-131.59 669.68,-131.59 669.68,-125.59 675.68,-119.59 681.68,-119.59 681.68,-119.59 714.93,-119.59 714.93,-119.59 720.93,-119.59 726.93,-125.59 726.93,-131.59 726.93,-131.59 726.93,-143.59 726.93,-143.59 726.93,-149.59 720.93,-155.59 714.93,-155.59"/>
<text text-anchor="middle" x="698.31" y="-132.54" font-family="Times New Roman,serif" font-size="14.00">execute</text>
</g>
<!-- closure&#45;&gt;execute -->
<g id="edge4" class="edge">
<title>closure&#45;&gt;execute</title>
<path fill="none" stroke="black" d="M541.63,-154.64C572.38,-151.27 622.96,-145.73 658.08,-141.88"/>
<polygon fill="black" stroke="black" points="658.29,-145.38 667.85,-140.82 657.52,-138.42 658.29,-145.38"/>
</g>
<!-- planner.plan -->
<g id="node7" class="node">
<title>planner.plan</title>
<path fill="none" stroke="black" d="M875.56,-209.59C875.56,-209.59 816.81,-209.59 816.81,-209.59 810.81,-209.59 804.81,-203.59 804.81,-197.59 804.81,-197.59 804.81,-185.59 804.81,-185.59 804.81,-179.59 810.81,-173.59 816.81,-173.59 816.81,-173.59 875.56,-173.59 875.56,-173.59 881.56,-173.59 887.56,-179.59 887.56,-185.59 887.56,-185.59 887.56,-197.59 887.56,-197.59 887.56,-203.59 881.56,-209.59 875.56,-209.59"/>
<text text-anchor="middle" x="846.18" y="-186.54" font-family="Times New Roman,serif" font-size="14.00">planner.plan</text>
</g>
<!-- gen_batch_query_plan&#45;&gt;planner.plan -->
<g id="edge6" class="edge">
<title>gen_batch_query_plan&#45;&gt;planner.plan</title>
<path fill="none" stroke="black" d="M767.97,-191.59C776.51,-191.59 785.13,-191.59 793.35,-191.59"/>
<polygon fill="black" stroke="black" points="793.16,-195.09 803.16,-191.59 793.16,-188.09 793.16,-195.09"/>
</g>
<!-- BoundStatement -->
<g id="node8" class="node">
<title>BoundStatement</title>
<path fill="none" stroke="black" d="M1015.76,-207.52C1015.76,-207.52 936.38,-193.65 936.38,-193.65 930.47,-192.62 930.47,-190.56 936.38,-189.52 936.38,-189.52 1015.76,-175.65 1015.76,-175.65 1021.67,-174.62 1033.49,-174.62 1039.4,-175.65 1039.4,-175.65 1118.78,-189.52 1118.78,-189.52 1124.69,-190.56 1124.69,-192.62 1118.78,-193.65 1118.78,-193.65 1039.4,-207.52 1039.4,-207.52 1033.49,-208.56 1021.67,-208.56 1015.76,-207.52"/>
<text text-anchor="middle" x="1027.58" y="-186.54" font-family="Times New Roman,serif" font-size="14.00">BoundStatement</text>
</g>
<!-- planner.plan&#45;&gt;BoundStatement -->
<g id="edge7" class="edge">
<title>planner.plan&#45;&gt;BoundStatement</title>
<path fill="none" stroke="black" d="M887.89,-191.59C894.92,-191.59 902.52,-191.59 910.43,-191.59"/>
<polygon fill="black" stroke="black" points="910.26,-195.09 920.26,-191.59 910.26,-188.09 910.26,-195.09"/>
</g>
<!-- plan_query -->
<g id="node9" class="node">
<title>plan_query</title>
<path fill="none" stroke="black" d="M1550.73,-294.59C1550.73,-294.59 1497.98,-294.59 1497.98,-294.59 1491.98,-294.59 1485.98,-288.59 1485.98,-282.59 1485.98,-282.59 1485.98,-270.59 1485.98,-270.59 1485.98,-264.59 1491.98,-258.59 1497.98,-258.59 1497.98,-258.59 1550.73,-258.59 1550.73,-258.59 1556.73,-258.59 1562.73,-264.59 1562.73,-270.59 1562.73,-270.59 1562.73,-282.59 1562.73,-282.59 1562.73,-288.59 1556.73,-294.59 1550.73,-294.59"/>
<text text-anchor="middle" x="1524.35" y="-271.54" font-family="Times New Roman,serif" font-size="14.00">plan_query</text>
</g>
<!-- BoundStatement&#45;&gt;plan_query -->
<g id="edge8" class="edge">
<title>BoundStatement&#45;&gt;plan_query</title>
<path fill="none" stroke="black" d="M1058.58,-204.54C1082.51,-214.33 1117.12,-227.29 1148.6,-234.59 1263.39,-261.2 1402,-271.15 1474.21,-274.72"/>
<polygon fill="black" stroke="black" points="1473.97,-278.21 1484.12,-275.18 1474.3,-271.22 1473.97,-278.21"/>
<text text-anchor="middle" x="1369.85" y="-275.63" font-family="Times New Roman,serif" font-size="14.00">BoundStatement::Query</text>
</g>
<!-- plan_insert -->
<g id="node16" class="node">
<title>plan_insert</title>
<path fill="none" stroke="black" d="M1395.85,-240.59C1395.85,-240.59 1343.85,-240.59 1343.85,-240.59 1337.85,-240.59 1331.85,-234.59 1331.85,-228.59 1331.85,-228.59 1331.85,-216.59 1331.85,-216.59 1331.85,-210.59 1337.85,-204.59 1343.85,-204.59 1343.85,-204.59 1395.85,-204.59 1395.85,-204.59 1401.85,-204.59 1407.85,-210.59 1407.85,-216.59 1407.85,-216.59 1407.85,-228.59 1407.85,-228.59 1407.85,-234.59 1401.85,-240.59 1395.85,-240.59"/>
<text text-anchor="middle" x="1369.85" y="-217.54" font-family="Times New Roman,serif" font-size="14.00">plan_insert</text>
</g>
<!-- BoundStatement&#45;&gt;plan_insert -->
<g id="edge16" class="edge">
<title>BoundStatement&#45;&gt;plan_insert</title>
<path fill="none" stroke="black" d="M1097.44,-197.86C1163.71,-203.9 1262.21,-212.87 1320.54,-218.19"/>
<polygon fill="black" stroke="black" points="1319.86,-221.64 1330.14,-219.06 1320.5,-214.67 1319.86,-221.64"/>
<text text-anchor="middle" x="1217.23" y="-217.47" font-family="Times New Roman,serif" font-size="14.00">BoundStatement::Insert</text>
</g>
<!-- plan_delete -->
<g id="node18" class="node">
<title>plan_delete</title>
<path fill="none" stroke="black" d="M1396.98,-106.59C1396.98,-106.59 1342.73,-106.59 1342.73,-106.59 1336.73,-106.59 1330.73,-100.59 1330.73,-94.59 1330.73,-94.59 1330.73,-82.59 1330.73,-82.59 1330.73,-76.59 1336.73,-70.59 1342.73,-70.59 1342.73,-70.59 1396.98,-70.59 1396.98,-70.59 1402.98,-70.59 1408.98,-76.59 1408.98,-82.59 1408.98,-82.59 1408.98,-94.59 1408.98,-94.59 1408.98,-100.59 1402.98,-106.59 1396.98,-106.59"/>
<text text-anchor="middle" x="1369.85" y="-83.54" font-family="Times New Roman,serif" font-size="14.00">plan_delete</text>
</g>
<!-- BoundStatement&#45;&gt;plan_delete -->
<g id="edge19" class="edge">
<title>BoundStatement&#45;&gt;plan_delete</title>
<path fill="none" stroke="black" d="M1062.54,-179.23C1086.48,-170.67 1119.35,-159.22 1148.6,-150.09 1206.94,-131.88 1274.77,-113.33 1319.57,-101.43"/>
<polygon fill="black" stroke="black" points="1320.21,-104.88 1328.98,-98.94 1318.42,-98.12 1320.21,-104.88"/>
<text text-anchor="middle" x="1217.23" y="-153.29" font-family="Times New Roman,serif" font-size="14.00">BoundStatement::Delete</text>
</g>
<!-- plan_update -->
<g id="node23" class="node">
<title>plan_update</title>
<path fill="none" stroke="black" d="M1398.85,-184.59C1398.85,-184.59 1340.85,-184.59 1340.85,-184.59 1334.85,-184.59 1328.85,-178.59 1328.85,-172.59 1328.85,-172.59 1328.85,-160.59 1328.85,-160.59 1328.85,-154.59 1334.85,-148.59 1340.85,-148.59 1340.85,-148.59 1398.85,-148.59 1398.85,-148.59 1404.85,-148.59 1410.85,-154.59 1410.85,-160.59 1410.85,-160.59 1410.85,-172.59 1410.85,-172.59 1410.85,-178.59 1404.85,-184.59 1398.85,-184.59"/>
<text text-anchor="middle" x="1369.85" y="-161.54" font-family="Times New Roman,serif" font-size="14.00">plan_update</text>
</g>
<!-- BoundStatement&#45;&gt;plan_update -->
<g id="edge27" class="edge">
<title>BoundStatement&#45;&gt;plan_update</title>
<path fill="none" stroke="black" d="M1094.58,-184.86C1112.12,-183.18 1131.07,-181.47 1148.6,-180.09 1206.27,-175.56 1272.54,-171.68 1317.2,-169.25"/>
<polygon fill="black" stroke="black" points="1317.32,-172.75 1327.12,-168.72 1316.95,-165.76 1317.32,-172.75"/>
<text text-anchor="middle" x="1217.23" y="-183.29" font-family="Times New Roman,serif" font-size="14.00">BoundStatement::Update</text>
</g>
<!-- plan_set_expr -->
<g id="node10" class="node">
<title>plan_set_expr</title>
<path fill="none" stroke="black" d="M1707.1,-292.59C1707.1,-292.59 1639.35,-292.59 1639.35,-292.59 1633.35,-292.59 1627.35,-286.59 1627.35,-280.59 1627.35,-280.59 1627.35,-268.59 1627.35,-268.59 1627.35,-262.59 1633.35,-256.59 1639.35,-256.59 1639.35,-256.59 1707.1,-256.59 1707.1,-256.59 1713.1,-256.59 1719.1,-262.59 1719.1,-268.59 1719.1,-268.59 1719.1,-280.59 1719.1,-280.59 1719.1,-286.59 1713.1,-292.59 1707.1,-292.59"/>
<text text-anchor="middle" x="1673.23" y="-269.54" font-family="Times New Roman,serif" font-size="14.00">plan_set_expr</text>
</g>
<!-- plan_query&#45;&gt;plan_set_expr -->
<g id="edge9" class="edge">
<title>plan_query&#45;&gt;plan_set_expr</title>
<path fill="none" stroke="black" d="M1563.18,-276.07C1579.14,-275.86 1598.07,-275.6 1615.64,-275.36"/>
<polygon fill="black" stroke="black" points="1615.48,-278.86 1625.43,-275.23 1615.39,-271.86 1615.48,-278.86"/>
</g>
<!-- BoundSetExpr -->
<g id="node11" class="node">
<title>BoundSetExpr</title>
<path fill="none" stroke="black" d="M1857.95,-324.29C1857.95,-324.29 1789.34,-310.89 1789.34,-310.89 1783.45,-309.74 1783.45,-307.44 1789.34,-306.29 1789.34,-306.29 1857.95,-292.89 1857.95,-292.89 1863.84,-291.74 1875.62,-291.74 1881.5,-292.89 1881.5,-292.89 1950.11,-306.29 1950.11,-306.29 1956,-307.44 1956,-309.74 1950.11,-310.89 1950.11,-310.89 1881.5,-324.29 1881.5,-324.29 1875.62,-325.44 1863.84,-325.44 1857.95,-324.29"/>
<text text-anchor="middle" x="1869.73" y="-303.54" font-family="Times New Roman,serif" font-size="14.00">BoundSetExpr</text>
</g>
<!-- plan_set_expr&#45;&gt;BoundSetExpr -->
<g id="edge10" class="edge">
<title>plan_set_expr&#45;&gt;BoundSetExpr</title>
<path fill="none" stroke="black" d="M1719.34,-282.47C1745.79,-287.1 1779.55,-293 1808.28,-298.02"/>
<polygon fill="black" stroke="black" points="1807.48,-301.44 1817.94,-299.71 1808.69,-294.54 1807.48,-301.44"/>
</g>
<!-- BoundSetExpr&#45;&gt;plan_query -->
<g id="edge13" class="edge">
<title>BoundSetExpr&#45;&gt;plan_query</title>
<path fill="none" stroke="black" d="M1790.16,-311.51C1739.31,-312.15 1671.82,-310.67 1612.85,-301.59 1600.05,-299.62 1586.47,-296.34 1573.93,-292.81"/>
<polygon fill="black" stroke="black" points="1575.26,-289.55 1564.67,-290.08 1573.28,-296.26 1575.26,-289.55"/>
<text text-anchor="middle" x="1673.23" y="-314.4" font-family="Times New Roman,serif" font-size="14.00">BoundSetExpr::Query</text>
</g>
<!-- plan_select -->
<g id="node12" class="node">
<title>plan_select</title>
<path fill="none" stroke="black" d="M2254.1,-380.59C2254.1,-380.59 2201.35,-380.59 2201.35,-380.59 2195.35,-380.59 2189.35,-374.59 2189.35,-368.59 2189.35,-368.59 2189.35,-356.59 2189.35,-356.59 2189.35,-350.59 2195.35,-344.59 2201.35,-344.59 2201.35,-344.59 2254.1,-344.59 2254.1,-344.59 2260.1,-344.59 2266.1,-350.59 2266.1,-356.59 2266.1,-356.59 2266.1,-368.59 2266.1,-368.59 2266.1,-374.59 2260.1,-380.59 2254.1,-380.59"/>
<text text-anchor="middle" x="2227.73" y="-357.54" font-family="Times New Roman,serif" font-size="14.00">plan_select</text>
</g>
<!-- BoundSetExpr&#45;&gt;plan_select -->
<g id="edge11" class="edge">
<title>BoundSetExpr&#45;&gt;plan_select</title>
<path fill="none" stroke="black" d="M1918.11,-317.62C1939.13,-321.51 1964.19,-325.98 1986.85,-329.59 2052.82,-340.09 2129.31,-350.27 2177.85,-356.48"/>
<polygon fill="black" stroke="black" points="2177.4,-359.95 2187.76,-357.74 2178.28,-353.01 2177.4,-359.95"/>
<text text-anchor="middle" x="2068.6" y="-355.63" font-family="Times New Roman,serif" font-size="14.00">BoundSetExpr::Select</text>
</g>
<!-- plan_values -->
<g id="node13" class="node">
<title>plan_values</title>
<path fill="none" stroke="black" d="M2255.98,-326.59C2255.98,-326.59 2199.48,-326.59 2199.48,-326.59 2193.48,-326.59 2187.48,-320.59 2187.48,-314.59 2187.48,-314.59 2187.48,-302.59 2187.48,-302.59 2187.48,-296.59 2193.48,-290.59 2199.48,-290.59 2199.48,-290.59 2255.98,-290.59 2255.98,-290.59 2261.98,-290.59 2267.98,-296.59 2267.98,-302.59 2267.98,-302.59 2267.98,-314.59 2267.98,-314.59 2267.98,-320.59 2261.98,-326.59 2255.98,-326.59"/>
<text text-anchor="middle" x="2227.73" y="-303.54" font-family="Times New Roman,serif" font-size="14.00">plan_values</text>
</g>
<!-- BoundSetExpr&#45;&gt;plan_values -->
<g id="edge12" class="edge">
<title>BoundSetExpr&#45;&gt;plan_values</title>
<path fill="none" stroke="black" d="M1964.26,-308.59C2031.96,-308.59 2120.88,-308.59 2175.89,-308.59"/>
<polygon fill="black" stroke="black" points="2175.58,-312.09 2185.58,-308.59 2175.58,-305.09 2175.58,-312.09"/>
<text text-anchor="middle" x="2068.6" y="-311.79" font-family="Times New Roman,serif" font-size="14.00">BoundSetExpr::Values</text>
</g>
<!-- plan_set_operation -->
<g id="node14" class="node">
<title>plan_set_operation</title>
<path fill="none" stroke="black" d="M2275.1,-272.59C2275.1,-272.59 2180.35,-272.59 2180.35,-272.59 2174.35,-272.59 2168.35,-266.59 2168.35,-260.59 2168.35,-260.59 2168.35,-248.59 2168.35,-248.59 2168.35,-242.59 2174.35,-236.59 2180.35,-236.59 2180.35,-236.59 2275.1,-236.59 2275.1,-236.59 2281.1,-236.59 2287.1,-242.59 2287.1,-248.59 2287.1,-248.59 2287.1,-260.59 2287.1,-260.59 2287.1,-266.59 2281.1,-272.59 2275.1,-272.59"/>
<text text-anchor="middle" x="2227.73" y="-249.54" font-family="Times New Roman,serif" font-size="14.00">plan_set_operation</text>
</g>
<!-- BoundSetExpr&#45;&gt;plan_set_operation -->
<g id="edge14" class="edge">
<title>BoundSetExpr&#45;&gt;plan_set_operation</title>
<path fill="none" stroke="black" d="M1918.69,-299.72C1939.59,-295.96 1964.41,-291.64 1986.85,-288.09 2043.95,-279.06 2108.9,-270.07 2156.8,-263.68"/>
<polygon fill="black" stroke="black" points="2157.03,-267.18 2166.48,-262.39 2156.11,-260.24 2157.03,-267.18"/>
<text text-anchor="middle" x="2068.6" y="-291.29" font-family="Times New Roman,serif" font-size="14.00">BoundSetExpr::SetOperations</text>
</g>
<!-- plan_relation -->
<g id="node15" class="node">
<title>plan_relation</title>
<path fill="none" stroke="black" d="M2399.35,-380.59C2399.35,-380.59 2336.1,-380.59 2336.1,-380.59 2330.1,-380.59 2324.1,-374.59 2324.1,-368.59 2324.1,-368.59 2324.1,-356.59 2324.1,-356.59 2324.1,-350.59 2330.1,-344.59 2336.1,-344.59 2336.1,-344.59 2399.35,-344.59 2399.35,-344.59 2405.35,-344.59 2411.35,-350.59 2411.35,-356.59 2411.35,-356.59 2411.35,-368.59 2411.35,-368.59 2411.35,-374.59 2405.35,-380.59 2399.35,-380.59"/>
<text text-anchor="middle" x="2367.73" y="-357.54" font-family="Times New Roman,serif" font-size="14.00">plan_relation</text>
</g>
<!-- plan_select&#45;&gt;plan_relation -->
<g id="edge15" class="edge">
<title>plan_select&#45;&gt;plan_relation</title>
<path fill="none" stroke="black" d="M2266.44,-362.59C2280.55,-362.59 2296.89,-362.59 2312.22,-362.59"/>
<polygon fill="black" stroke="black" points="2312.19,-366.09 2322.19,-362.59 2312.19,-359.09 2312.19,-366.09"/>
</g>
<!-- plan_insert&#45;&gt;plan_query -->
<g id="edge17" class="edge">
<title>plan_insert&#45;&gt;plan_query</title>
<path fill="none" stroke="black" d="M1408.16,-235.8C1428.3,-242.93 1453.39,-251.82 1475.02,-259.47"/>
<polygon fill="black" stroke="black" points="1473.62,-262.69 1484.21,-262.73 1475.95,-256.09 1473.62,-262.69"/>
</g>
<!-- LogicalProject::create -->
<g id="node17" class="node">
<title>LogicalProject::create</title>
<path fill="none" stroke="black" d="M1925.35,-162.59C1925.35,-162.59 1814.1,-162.59 1814.1,-162.59 1808.1,-162.59 1802.1,-156.59 1802.1,-150.59 1802.1,-150.59 1802.1,-138.59 1802.1,-138.59 1802.1,-132.59 1808.1,-126.59 1814.1,-126.59 1814.1,-126.59 1925.35,-126.59 1925.35,-126.59 1931.35,-126.59 1937.35,-132.59 1937.35,-138.59 1937.35,-138.59 1937.35,-150.59 1937.35,-150.59 1937.35,-156.59 1931.35,-162.59 1925.35,-162.59"/>
<text text-anchor="middle" x="1869.73" y="-139.54" font-family="Times New Roman,serif" font-size="14.00">LogicalProject::create</text>
</g>
<!-- plan_insert&#45;&gt;LogicalProject::create -->
<g id="edge18" class="edge">
<title>plan_insert&#45;&gt;LogicalProject::create</title>
<path fill="none" stroke="black" d="M1408.15,-219.4C1474.13,-213.45 1615.63,-199.24 1733.6,-177.59 1752.18,-174.18 1772.02,-169.77 1790.61,-165.3"/>
<polygon fill="black" stroke="black" points="1791.35,-168.72 1800.23,-162.95 1789.68,-161.92 1791.35,-168.72"/>
</g>
<!-- plan_delete&#45;&gt;LogicalProject::create -->
<g id="edge26" class="edge">
<title>plan_delete&#45;&gt;LogicalProject::create</title>
<path fill="none" stroke="black" d="M1409.09,-92.89C1490.46,-102.04 1682.15,-123.6 1790.53,-135.79"/>
<polygon fill="black" stroke="black" points="1789.88,-139.24 1800.21,-136.88 1790.66,-132.29 1789.88,-139.24"/>
</g>
<!-- plan_where -->
<g id="node19" class="node">
<title>plan_where</title>
<path fill="none" stroke="black" d="M1551.85,-160.59C1551.85,-160.59 1496.85,-160.59 1496.85,-160.59 1490.85,-160.59 1484.85,-154.59 1484.85,-148.59 1484.85,-148.59 1484.85,-136.59 1484.85,-136.59 1484.85,-130.59 1490.85,-124.59 1496.85,-124.59 1496.85,-124.59 1551.85,-124.59 1551.85,-124.59 1557.85,-124.59 1563.85,-130.59 1563.85,-136.59 1563.85,-136.59 1563.85,-148.59 1563.85,-148.59 1563.85,-154.59 1557.85,-160.59 1551.85,-160.59"/>
<text text-anchor="middle" x="1524.35" y="-137.54" font-family="Times New Roman,serif" font-size="14.00">plan_where</text>
</g>
<!-- plan_delete&#45;&gt;plan_where -->
<g id="edge20" class="edge">
<title>plan_delete&#45;&gt;plan_where</title>
<path fill="none" stroke="black" d="M1409.33,-102.22C1428.94,-109.16 1453.02,-117.68 1473.98,-125.11"/>
<polygon fill="black" stroke="black" points="1472.6,-128.33 1483.19,-128.37 1474.93,-121.73 1472.6,-128.33"/>
</g>
<!-- plan_base_table -->
<g id="node20" class="node">
<title>plan_base_table</title>
<path fill="none" stroke="black" d="M1563.85,-68.59C1563.85,-68.59 1484.85,-68.59 1484.85,-68.59 1478.85,-68.59 1472.85,-62.59 1472.85,-56.59 1472.85,-56.59 1472.85,-44.59 1472.85,-44.59 1472.85,-38.59 1478.85,-32.59 1484.85,-32.59 1484.85,-32.59 1563.85,-32.59 1563.85,-32.59 1569.85,-32.59 1575.85,-38.59 1575.85,-44.59 1575.85,-44.59 1575.85,-56.59 1575.85,-56.59 1575.85,-62.59 1569.85,-68.59 1563.85,-68.59"/>
<text text-anchor="middle" x="1524.35" y="-45.54" font-family="Times New Roman,serif" font-size="14.00">plan_base_table</text>
</g>
<!-- plan_delete&#45;&gt;plan_base_table -->
<g id="edge21" class="edge">
<title>plan_delete&#45;&gt;plan_base_table</title>
<path fill="none" stroke="black" d="M1409.33,-79C1425.12,-75.07 1443.78,-70.42 1461.4,-66.03"/>
<polygon fill="black" stroke="black" points="1462.16,-69.44 1471.02,-63.63 1460.47,-62.65 1462.16,-69.44"/>
</g>
<!-- LogicalProject::with_out_col_idx -->
<g id="node22" class="node">
<title>LogicalProject::with_out_col_idx</title>
<path fill="none" stroke="black" d="M1956.85,-37.59C1956.85,-37.59 1782.6,-37.59 1782.6,-37.59 1776.6,-37.59 1770.6,-31.59 1770.6,-25.59 1770.6,-25.59 1770.6,-13.59 1770.6,-13.59 1770.6,-7.59 1776.6,-1.59 1782.6,-1.59 1782.6,-1.59 1956.85,-1.59 1956.85,-1.59 1962.85,-1.59 1968.85,-7.59 1968.85,-13.59 1968.85,-13.59 1968.85,-25.59 1968.85,-25.59 1968.85,-31.59 1962.85,-37.59 1956.85,-37.59"/>
<text text-anchor="middle" x="1869.73" y="-14.54" font-family="Times New Roman,serif" font-size="14.00">LogicalProject::with_out_col_idx</text>
</g>
<!-- plan_delete&#45;&gt;LogicalProject::with_out_col_idx -->
<g id="edge25" class="edge">
<title>plan_delete&#45;&gt;LogicalProject::with_out_col_idx</title>
<path fill="none" stroke="black" d="M1391.76,-70.24C1411.24,-54.45 1441.85,-32.8 1472.85,-23.59 1566.46,4.21 1678.09,2.39 1758.91,-4.74"/>
<polygon fill="black" stroke="black" points="1758.32,-8.2 1768.6,-5.64 1758.96,-1.23 1758.32,-8.2"/>
</g>
<!-- placeholder -->
<g id="node21" class="node">
<title>placeholder</title>
<path fill="none" stroke="black" d="M1700.73,-68.59C1700.73,-68.59 1645.73,-68.59 1645.73,-68.59 1639.73,-68.59 1633.73,-62.59 1633.73,-56.59 1633.73,-56.59 1633.73,-44.59 1633.73,-44.59 1633.73,-38.59 1639.73,-32.59 1645.73,-32.59 1645.73,-32.59 1700.73,-32.59 1700.73,-32.59 1706.73,-32.59 1712.73,-38.59 1712.73,-44.59 1712.73,-44.59 1712.73,-56.59 1712.73,-56.59 1712.73,-62.59 1706.73,-68.59 1700.73,-68.59"/>
<text text-anchor="middle" x="1673.23" y="-45.54" font-family="Times New Roman,serif" font-size="14.00">placeholder</text>
</g>
<!-- plan_base_table&#45;&gt;placeholder -->
<!-- placeholder&#45;&gt;LogicalProject::create -->
<g id="edge24" class="edge">
<title>placeholder&#45;&gt;LogicalProject::create</title>
<path fill="none" stroke="black" d="M1712.84,-65.44C1725.62,-70.59 1739.83,-76.59 1752.6,-82.59 1777.6,-94.33 1804.88,-108.8 1826.71,-120.81"/>
<polygon fill="black" stroke="black" points="1824.88,-123.8 1835.32,-125.58 1828.27,-117.67 1824.88,-123.8"/>
</g>
<!-- placeholder&#45;&gt;LogicalProject::with_out_col_idx -->
<g id="edge23" class="edge">
<title>placeholder&#45;&gt;LogicalProject::with_out_col_idx</title>
<path fill="none" stroke="black" d="M1713.12,-44.39C1726.76,-42.22 1742.83,-39.65 1759.38,-37.02"/>
<polygon fill="black" stroke="black" points="1759.48,-40.55 1768.8,-35.51 1758.38,-33.63 1759.48,-40.55"/>
</g>
<!-- plan_update&#45;&gt;LogicalProject::create -->
<g id="edge30" class="edge">
<title>plan_update&#45;&gt;LogicalProject::create</title>
<path fill="none" stroke="black" d="M1411.05,-168.04C1429.83,-168.65 1452.48,-169.29 1472.85,-169.59 1518.62,-170.26 1530.12,-171.54 1575.85,-169.59 1648.78,-166.48 1731.64,-159.04 1790.57,-153.08"/>
<polygon fill="black" stroke="black" points="1790.56,-156.6 1800.15,-152.1 1789.84,-149.64 1790.56,-156.6"/>
</g>
<!-- plan_update&#45;&gt;plan_where -->
<g id="edge28" class="edge">
<title>plan_update&#45;&gt;plan_where</title>
<path fill="none" stroke="black" d="M1411.32,-160.22C1430.36,-157.22 1453.26,-153.62 1473.38,-150.45"/>
<polygon fill="black" stroke="black" points="1473.71,-153.94 1483.04,-148.93 1472.62,-147.03 1473.71,-153.94"/>
</g>
<!-- plan_update&#45;&gt;plan_base_table -->
<g id="edge29" class="edge">
<title>plan_update&#45;&gt;plan_base_table</title>
<path fill="none" stroke="black" d="M1395.02,-148.21C1420.71,-128.67 1461.51,-97.63 1490.19,-75.81"/>
<polygon fill="black" stroke="black" points="1492,-78.83 1497.84,-69.99 1487.77,-73.26 1492,-78.83"/>
</g>
</g>
</svg>
