<?xml version="1.0" encoding="UTF-8" standalone="no"?>
<!DOCTYPE svg PUBLIC "-//W3C//DTD SVG 1.1//EN"
 "http://www.w3.org/Graphics/SVG/1.1/DTD/svg11.dtd">
<!-- Generated by graphviz version 2.43.0 (0)
 -->
<!-- Title: G Pages: 1 -->
<svg width="463pt" height="518pt"
 viewBox="0.00 0.00 462.50 518.00" xmlns="http://www.w3.org/2000/svg" xmlns:xlink="http://www.w3.org/1999/xlink">
<g id="graph0" class="graph" transform="scale(1 1) rotate(0) translate(4 514)">
<title>G</title>
<polygon fill="white" stroke="transparent" points="-4,4 -4,-514 458.5,-514 458.5,4 -4,4"/>
<!-- State_Table -->
<g id="node1" class="node">
<title>State_Table</title>
<polygon fill="none" stroke="black" points="203.5,-510 103.5,-510 103.5,-474 203.5,-474 203.5,-510"/>
<text text-anchor="middle" x="153.5" y="-488.3" font-family="Times,serif" font-size="14.00">State_Table</text>
</g>
<!-- Hummock_Storage\n(LSM Tree based) -->
<g id="node2" class="node">
<title>Hummock_Storage\n(LSM Tree based)</title>
<polygon fill="none" stroke="black" points="229.5,-416 77.5,-416 77.5,-378 229.5,-378 229.5,-416"/>
<text text-anchor="middle" x="153.5" y="-400.8" font-family="Times,serif" font-size="14.00">Hummock_Storage</text>
<text text-anchor="middle" x="153.5" y="-385.8" font-family="Times,serif" font-size="14.00">(LSM Tree based)</text>
</g>
<!-- State_Table&#45;&gt;Hummock_Storage\n(LSM Tree based) -->
<g id="edge1" class="edge">
<title>State_Table&#45;&gt;Hummock_Storage\n(LSM Tree based)</title>
<path fill="none" stroke="black" d="M153.5,-473.94C153.5,-460.65 153.5,-441.9 153.5,-426.36"/>
<polygon fill="black" stroke="black" points="157,-426.22 153.5,-416.22 150,-426.22 157,-426.22"/>
<text text-anchor="middle" x="211" y="-440" font-family="Times,serif" font-size="20.00">Read/Write</text>
</g>
<!-- Memtable -->
<g id="node3" class="node">
<title>Memtable</title>
<polygon fill="none" stroke="black" points="131,-320 42,-320 42,-284 131,-284 131,-320"/>
<text text-anchor="middle" x="86.5" y="-298.3" font-family="Times,serif" font-size="14.00">Memtable</text>
</g>
<!-- Hummock_Storage\n(LSM Tree based)&#45;&gt;Memtable -->
<g id="edge2" class="edge">
<title>Hummock_Storage\n(LSM Tree based)&#45;&gt;Memtable</title>
<path fill="none" stroke="black" d="M135.62,-377.94C130.49,-372.39 125.06,-366.12 120.5,-360 113.23,-350.23 106.17,-338.82 100.38,-328.78"/>
<polygon fill="black" stroke="black" points="103.42,-327.03 95.46,-320.04 97.32,-330.47 103.42,-327.03"/>
<text text-anchor="middle" x="149" y="-344" font-family="Times,serif" font-size="20.00">Write</text>
</g>
<!-- Version_Manager -->
<g id="node4" class="node">
<title>Version_Manager</title>
<polygon fill="none" stroke="black" points="289.5,-320 149.5,-320 149.5,-284 289.5,-284 289.5,-320"/>
<text text-anchor="middle" x="219.5" y="-298.3" font-family="Times,serif" font-size="14.00">Version_Manager</text>
</g>
<!-- Hummock_Storage\n(LSM Tree based)&#45;&gt;Version_Manager -->
<g id="edge3" class="edge">
<title>Hummock_Storage\n(LSM Tree based)&#45;&gt;Version_Manager</title>
<path fill="none" stroke="black" d="M166.54,-377.63C176.56,-363.51 190.5,-343.86 201.57,-328.27"/>
<polygon fill="black" stroke="black" points="204.44,-330.26 207.38,-320.08 198.74,-326.21 204.44,-330.26"/>
<text text-anchor="middle" x="220.5" y="-344" font-family="Times,serif" font-size="20.00">Read</text>
</g>
<!-- Immutable_Memtable -->
<g id="node5" class="node">
<title>Immutable_Memtable</title>
<polygon fill="none" stroke="black" points="173,-226 0,-226 0,-190 173,-190 173,-226"/>
<text text-anchor="middle" x="86.5" y="-204.3" font-family="Times,serif" font-size="14.00">Immutable_Memtable</text>
</g>
<!-- Memtable&#45;&gt;Immutable_Memtable -->
<g id="edge4" class="edge">
<title>Memtable&#45;&gt;Immutable_Memtable</title>
<path fill="none" stroke="black" d="M86.5,-283.7C86.5,-270.46 86.5,-251.95 86.5,-236.66"/>
<polygon fill="black" stroke="black" points="90,-236.23 86.5,-226.23 83,-236.23 90,-236.23"/>
<text text-anchor="middle" x="115.5" y="-250" font-family="Times,serif" font-size="20.00">Flush</text>
</g>
<!-- SSTable -->
<g id="node6" class="node">
<title>SSTable</title>
<polygon fill="none" stroke="black" points="297.5,-132 223.5,-132 223.5,-96 297.5,-96 297.5,-132"/>
<text text-anchor="middle" x="260.5" y="-110.3" font-family="Times,serif" font-size="14.00">SSTable</text>
</g>
<!-- Immutable_Memtable&#45;&gt;SSTable -->
<g id="edge5" class="edge">
<title>Immutable_Memtable&#45;&gt;SSTable</title>
<path fill="none" stroke="black" d="M114.08,-189.75C133.26,-178.02 159.58,-162.42 183.5,-150 193.28,-144.92 203.94,-139.81 214.13,-135.13"/>
<polygon fill="black" stroke="black" points="215.65,-138.28 223.31,-130.96 212.75,-131.91 215.65,-138.28"/>
<text text-anchor="middle" x="220" y="-156" font-family="Times,serif" font-size="20.00">Upload</text>
</g>
<!-- Object_Store\n(S3, MiniIO, etc) -->
<g id="node9" class="node">
<title>Object_Store\n(S3, MiniIO, etc)</title>
<polygon fill="none" stroke="black" points="327.5,-38 193.5,-38 193.5,0 327.5,0 327.5,-38"/>
<text text-anchor="middle" x="260.5" y="-22.8" font-family="Times,serif" font-size="14.00">Object_Store</text>
<text text-anchor="middle" x="260.5" y="-7.8" font-family="Times,serif" font-size="14.00">(S3, MiniIO, etc)</text>
</g>
<!-- SSTable&#45;&gt;Object_Store\n(S3, MiniIO, etc) -->
<g id="edge8" class="edge">
<title>SSTable&#45;&gt;Object_Store\n(S3, MiniIO, etc)</title>
<path fill="none" stroke="black" d="M260.5,-95.94C260.5,-82.65 260.5,-63.9 260.5,-48.36"/>
<polygon fill="black" stroke="black" points="264,-48.22 260.5,-38.22 257,-48.22 264,-48.22"/>
<text text-anchor="middle" x="302" y="-62" font-family="Times,serif" font-size="20.00">Store In</text>
</g>
<!-- Compactor_Node -->
<g id="node7" class="node">
<title>Compactor_Node</title>
<polygon fill="none" stroke="black" points="330,-226 191,-226 191,-190 330,-190 330,-226"/>
<text text-anchor="middle" x="260.5" y="-204.3" font-family="Times,serif" font-size="14.00">Compactor_Node</text>
</g>
<!-- Compactor_Node&#45;&gt;SSTable -->
<g id="edge6" class="edge">
<title>Compactor_Node&#45;&gt;SSTable</title>
<path fill="none" stroke="black" d="M260.5,-189.7C260.5,-176.46 260.5,-157.95 260.5,-142.66"/>
<polygon fill="black" stroke="black" points="264,-142.23 260.5,-132.23 257,-142.23 264,-142.23"/>
<text text-anchor="middle" x="306" y="-156" font-family="Times,serif" font-size="20.00">Compact</text>
</g>
<!-- Block_Cache -->
<g id="node8" class="node">
<title>Block_Cache</title>
<polygon fill="none" stroke="black" points="454.5,-226 348.5,-226 348.5,-190 454.5,-190 454.5,-226"/>
<text text-anchor="middle" x="401.5" y="-204.3" font-family="Times,serif" font-size="14.00">Block_Cache</text>
</g>
<!-- Block_Cache&#45;&gt;SSTable -->
<g id="edge7" class="edge">
<title>Block_Cache&#45;&gt;SSTable</title>
<path fill="none" stroke="black" d="M385.54,-181.54C377.62,-170.6 367.24,-158.42 355.5,-150 341.31,-139.82 323.82,-132.27 307.73,-126.84"/>
<polygon fill="black" stroke="black" points="382.78,-183.7 391.33,-189.95 388.54,-179.73 382.78,-183.7"/>
<polygon fill="black" stroke="black" points="308.53,-123.42 297.94,-123.73 306.41,-130.09 308.53,-123.42"/>
<text text-anchor="middle" x="408.5" y="-156" font-family="Times,serif" font-size="20.00">Cache</text>
</g>
</g>
</svg>
